<svg id="Vandbærer" xmlns="http://www.w3.org/2000/svg" viewBox="0 0 852 790"><defs><style>.cls-1{fill:#fff}.cls-2{fill:none;stroke:#fff;stroke-miterlimit:10;stroke-width:5px}</style></defs><circle class="cls-1" cx="646" cy="89" r="21"/><circle class="cls-1" cx="447" cy="208" r="21"/><circle class="cls-1" cx="250" cy="330" r="21"/><circle class="cls-1" cx="392" cy="423" r="21"/><circle class="cls-1" cx="524" cy="423" r="21"/><circle class="cls-1" cx="237" cy="436" r="21"/><circle class="cls-1" cx="181" cy="457" r="21"/><circle class="cls-1" cx="168" cy="518" r="21"/><circle class="cls-1" cx="308" cy="713" r="21"/><circle class="cls-1" cx="355" cy="613" r="21"/><circle class="cls-1" cx="468" cy="600" r="21"/><circle class="cls-1" cx="575" cy="692" r="21"/><path class="cls-2" d="M646 87 447 206 250 328l-13 106-56 21-13 61 140 195 47-100 113-13 107 92"/><path class="cls-2" d="M520.19 423H392l-142-93"/></svg>