<svg id="Krebs" xmlns="http://www.w3.org/2000/svg" viewBox="0 0 852 790"><defs><style>.cls-1{fill:#fff}.cls-2,.cls-3{fill:none;stroke:#fff;stroke-miterlimit:10}.cls-3{stroke-width:5px}</style></defs><circle class="cls-1" cx="50.5" cy="49.5" r="21"/><circle class="cls-1" cx="299.5" cy="423.5" r="21"/><circle class="cls-1" cx="237.5" cy="300.5" r="21"/><circle class="cls-1" cx="796.5" cy="617.5" r="21"/><circle class="cls-1" cx="617.5" cy="541.5" r="21"/><circle class="cls-1" cx="320.5" cy="741.5" r="21"/><path class="cls-3" d="m50.5 49.5 187 251 62 123 21 318"/><path class="cls-3" d="m796.5 617.5-179-76-317.69-113.3"/><g><circle class="cls-2" cx="50.5" cy="49.5" r="21"/><circle class="cls-2" cx="299.5" cy="423.5" r="21"/><circle class="cls-2" cx="237.5" cy="300.5" r="21"/><circle class="cls-2" cx="796.5" cy="617.5" r="21"/><circle class="cls-2" cx="617.5" cy="541.5" r="21"/><circle class="cls-2" cx="320.5" cy="741.5" r="21"/><path class="cls-2" d="m50.5 49.5 187 251 62 123 21 318"/><path class="cls-2" d="m796.5 617.5-179-76-317.69-113.3"/></g></svg>